# xmcd
#
# Track frame offsets:
#	183
#	18288
#	32488
#	45323
#	59025
#	78725
#	90468
#	101415
#	111855
#	131005
#
# Disc length: 1982 seconds
# Revision: 0
# Processed by: cddbd v1.5.2PL0 Copyright (c) Steve Scherf et al.
# Submitted via: dBpowerAMP V12.0
#
DISCID=7807bc0a
DTITLE=Hank Williams, Jr. - Greatest Hits
DYEAR=1993
DGENRE=Country
TTITLE0=Family Tradition
TTITLE1=Whiskey Bent and Hell Bound
TTITLE2=Women I've Never Had
TTITLE3=Old Habits
TTITLE4=Kaw-Liga
TTITLE5=Dixie on My Mind
TTITLE6=Texas Women
TTITLE7=The American Dream
TTITLE8=A Country Boy Can Survive
TTITLE9=All My Rowdy Friends (Have Settled Down)
EXTD=
EXTT0=
EXTT1=
EXTT2=
EXTT3=
EXTT4=
EXTT5=
EXTT6=
EXTT7=
EXTT8=
EXTT9=
PLAYORDER=
